<svg width="177" height="44.25" viewBox="0 0 236 59" fill="none" xmlns="http://www.w3.org/2000/svg">
<path d="M110.514 16.1026C107.706 13.7581 103.602 12.019 98.9205 12.019C94.0213 12.019 89.6223 13.7967 86.5827 16.8369C84.1331 19.2072 81.5937 23.3552 81.5937 29.6159C81.5937 34.7817 83.2866 38.9168 86.7494 42.3048C88.1602 43.6445 89.6223 44.6493 91.1485 45.3707L84.287 55.7408C81.2731 54.2723 78.8619 52.4559 77.0151 50.691C71.6157 45.6155 68.2299 38.0022 68.2299 29.7061C68.2299 21.5775 71.8594 13.3716 76.9382 8.29607C80.7472 4.48297 87.7626 0 98.9975 0C106.18 0 112.4 1.80349 117.53 5.47489L110.514 16.1026Z" fill="#F95E27"/>
<path d="M58.5853 57.364L37.2828 25.1587L15.9802 57.364H0L37.2828 0.979045L74.5655 57.364H58.5853Z" fill="#F95E27"/>
<path d="M226.928 8.21879C221.26 2.71814 213.911 0.012895 205.113 0.012895C193.865 0.012895 186.85 4.49586 183.054 8.30896C177.988 13.3845 174.345 21.5904 174.345 29.719C174.345 38.0151 177.731 45.6284 183.131 50.7039C187.363 54.7618 194.545 59 205.113 59C214.578 59 221.683 55.7795 226.928 50.7039C233.02 44.7782 235.727 37.0876 235.727 29.5515C235.727 20.8175 232.264 13.3716 226.928 8.21879ZM217.463 42.1502C214.757 44.8555 210.705 46.9681 204.946 46.9681C200.547 46.9681 196.494 45.783 192.852 42.3177C189.389 38.9297 187.696 34.7817 187.696 29.6288C187.696 23.3681 190.236 19.2201 192.685 16.8498C195.725 13.8096 200.124 12.0319 205.023 12.0319C210.179 12.0319 214.655 14.1446 217.451 16.8498C219.99 19.3876 222.35 23.7031 222.35 29.5387C222.363 36.057 219.657 40.0247 217.463 42.1502Z" fill="#F95E27"/>
<path d="M159.519 34.6142L176.846 57.7118H160.956L140.166 26.9107H148.695C151.068 26.9107 154.274 26.653 156.467 24.4631C157.403 23.5356 158.583 21.7579 158.583 18.9624C158.583 15.7419 157.057 14.0544 155.967 13.2041C153.851 11.5939 150.478 11.4264 148.785 11.4264H129.752L122.839 1.27532H152.491C159.673 1.27532 164.162 3.64563 166.868 6.1834C169.241 8.46353 171.767 12.5343 171.767 18.795C171.767 22.3504 171.011 26.7432 167.368 30.2987C165.432 32.1666 162.636 33.8541 159.519 34.6142Z" fill="#F95E27"/>
</svg>
