<svg width="249" height="88" viewBox="0 0 249 88" fill="none" xmlns="http://www.w3.org/2000/svg">
<path d="M170.073 73.829L168.113 78.8756H171.969L170.073 73.829ZM173.596 83.3971L172.327 80.2461H167.78L166.551 83.3971H164.553L169.305 71.7924H170.829L175.555 83.3971H173.596ZM151.629 83.3971V71.8052H153.486V83.3971H151.629ZM137.847 75.8912C137.68 75.3789 137.424 74.9434 137.091 74.5719C136.758 74.2133 136.361 73.9187 135.874 73.7137C135.4 73.5088 134.849 73.4063 134.247 73.4063H131.929V81.7704H134.26C134.875 81.7704 135.426 81.6679 135.912 81.4502C136.399 81.2324 136.796 80.9378 137.129 80.5664C137.462 80.1949 137.706 79.7466 137.872 79.2343C138.039 78.7219 138.116 78.1711 138.116 77.5691C138.103 76.9671 138.013 76.4035 137.847 75.8912ZM139.589 79.9643C139.32 80.6816 138.935 81.2836 138.436 81.796C137.936 82.3083 137.334 82.6926 136.63 82.9744C135.925 83.2562 135.131 83.3971 134.26 83.3971H130.072V71.7924H134.26C135.208 71.7924 136.041 71.9461 136.758 72.2535C137.475 72.561 138.064 72.9708 138.551 73.496C139.038 74.0211 139.396 74.636 139.64 75.3404C139.883 76.0449 140.011 76.7878 140.011 77.5819C139.998 78.4529 139.858 79.2599 139.589 79.9643ZM118.442 81.7704V83.3843H110.359V71.7796H118.301V73.3935H112.217V76.6981H117.481V78.2224H112.217V81.7704H118.442ZM96.1929 83.3971V75.0458L92.6833 81.3733H91.6586L88.1363 75.0458V83.3971H86.279V71.7924H88.2772L92.1838 78.8884L96.0904 71.7924H98.0886V83.3971H96.1929Z" fill="#8A9499"/>
<path d="M117.161 19.9815C114.356 17.6503 110.257 15.9211 105.582 15.9211C100.689 15.9211 96.2954 17.6887 93.2597 20.7116C90.8133 23.0684 88.2772 27.1927 88.2772 33.4177C88.2772 38.554 89.9679 42.6656 93.4262 46.0343C94.8352 47.3664 96.2954 48.3654 97.8196 49.0827L90.967 59.3937C87.9569 57.9335 85.5489 56.1275 83.7045 54.3727C78.312 49.3261 74.9306 41.7562 74.9306 33.5074C74.9306 25.4252 78.5554 17.2661 83.6276 12.2194C87.4318 8.42809 94.4381 3.97068 105.658 3.97068C112.831 3.97068 119.044 5.76389 124.167 9.41435L117.161 19.9815Z" fill="#F95E27"/>
<path d="M65.2985 61.0076L44.0233 28.986L22.7481 61.0076H6.78858L44.0233 4.94413L81.258 61.0076H65.2985Z" fill="#F95E27"/>
<path d="M233.425 12.1426C227.763 6.6733 220.424 3.98348 211.637 3.98348C200.404 3.98348 193.398 8.44089 189.606 12.2322C184.547 17.2789 180.909 25.438 180.909 33.5202C180.909 41.769 184.291 49.3389 189.683 54.3855C193.91 58.4202 201.083 62.6343 211.637 62.6343C221.09 62.6343 228.186 59.4321 233.425 54.3855C239.509 48.4935 242.211 40.8468 242.211 33.3537C242.211 24.6694 238.753 17.266 233.425 12.1426ZM223.972 45.8806C221.269 48.5704 217.222 50.671 211.471 50.671C207.077 50.671 203.03 49.4926 199.392 46.0471C195.934 42.6784 194.243 38.554 194.243 33.4306C194.243 27.2055 196.779 23.0812 199.226 20.7244C202.261 17.7015 206.655 15.9339 211.548 15.9339C216.697 15.9339 221.167 18.0346 223.959 20.7244C226.495 23.2477 228.852 27.5386 228.852 33.3409C228.865 39.8221 226.162 43.7671 223.972 45.8806Z" fill="#F95E27"/>
<path d="M166.102 38.3875L183.407 61.3534H167.537L146.774 30.7279H155.292C157.662 30.7279 160.864 30.4718 163.054 28.2943C163.989 27.3721 165.167 25.6045 165.167 22.825C165.167 19.6228 163.643 17.9449 162.554 17.0995C160.441 15.4985 157.072 15.332 155.382 15.332H136.374L129.47 5.23874H159.083C166.256 5.23874 170.739 7.59553 173.442 10.1188C175.811 12.386 178.335 16.4335 178.335 22.6585C178.335 26.1937 177.579 30.5614 173.941 34.0966C172.007 35.9539 169.215 37.6318 166.102 38.3875Z" fill="#F95E27"/>
<path d="M241.276 9.09414V7.78765L241.34 6.03287L240.175 9.09414H239.688L238.523 6.03287L238.599 7.78765V9.09414H237.908V5.12346H238.804L239.931 8.17191L241.071 5.12346H241.955V9.09414H241.276Z" fill="#F95E27"/>
<path d="M236.166 5.67423V9.09414H235.487V5.67423H234.27V5.12346H237.395V5.67423H236.166Z" fill="#F95E27"/>
</svg>
